<svg width="32" height="33" viewBox="0 0 32 33" fill="none" xmlns="http://www.w3.org/2000/svg">
<g filter="url(#filter0_d_2_921)">
<path d="M24.1701 9.33833C25.4601 9.33833 26.5058 8.29261 26.5058 7.00266C26.5058 5.71271 25.4601 4.66699 24.1701 4.66699C22.8802 4.66699 21.8345 5.71271 21.8345 7.00266C21.8345 8.29261 22.8802 9.33833 24.1701 9.33833Z" fill="#0FA958"/>
<path d="M24.0209 15.4224C23.3594 15.9509 22.8799 16.3336 21.8299 16.3336C20.781 16.3336 20.3272 15.9708 19.6412 15.4224C18.8479 14.7889 17.862 14.0003 15.993 14.0003C14.1252 14.0003 13.1405 14.7889 12.3484 15.4224C11.6624 15.9708 11.2109 16.3336 10.1609 16.3336C9.11321 16.3336 8.66054 15.9708 7.97571 15.4236C7.18354 14.7889 6.20004 14.0003 4.33337 14.0003V16.3336C5.37987 16.3336 5.83254 16.6964 6.51737 17.2436C7.30954 17.8783 8.29421 18.6669 10.1609 18.6669C12.0275 18.6669 13.0145 17.8783 13.8067 17.2436C14.4915 16.6953 14.9454 16.3336 15.993 16.3336C17.043 16.3336 17.5225 16.7163 18.184 17.2448C18.9762 17.8783 19.962 18.6669 21.8299 18.6669C23.6989 18.6669 24.6847 17.8783 25.478 17.2448C26.164 16.6964 26.6179 16.3336 27.6667 16.3336V14.0003C25.7989 14.0003 24.813 14.7889 24.0209 15.4224ZM21.8299 22.1669C20.781 22.1669 20.3272 21.8041 19.6412 21.2558C18.8479 20.6223 17.862 19.8336 15.993 19.8336C14.1252 19.8336 13.1405 20.6223 12.3484 21.2558C11.6624 21.8041 11.2109 22.1669 10.1609 22.1669C9.11321 22.1669 8.66054 21.8041 7.97571 21.2569C7.18354 20.6223 6.20004 19.8336 4.33337 19.8336V22.1669C5.37987 22.1669 5.83254 22.5298 6.51737 23.0769C7.30954 23.7116 8.29421 24.5003 10.1609 24.5003C12.0275 24.5003 13.0145 23.7116 13.8067 23.0769C14.4915 22.5286 14.9454 22.1669 15.993 22.1669C17.043 22.1669 17.5225 22.5496 18.184 23.0781C18.9762 23.7116 19.962 24.5003 21.8299 24.5003C23.6989 24.5003 24.6847 23.7116 25.478 23.0781C26.164 22.5298 26.6179 22.1669 27.6667 22.1669V19.8336C25.7989 19.8336 24.813 20.6223 24.0209 21.2558C23.3594 21.7843 22.8799 22.1669 21.8299 22.1669ZM14.8334 6.32243L17.288 8.77709L14.8882 11.7754C15.2219 11.7101 15.5835 11.6669 15.993 11.6669C17.862 11.6669 18.8479 12.4556 19.6412 13.0891C20.3272 13.6374 20.781 14.0003 21.8299 14.0003C22.8799 14.0003 23.3594 13.6176 24.0209 13.0891C24.1749 12.9666 24.3405 12.8359 24.5144 12.7088L22.069 10.2704L22.0749 10.2646L15.6582 3.84793C15.55 3.73949 15.4214 3.65346 15.2799 3.59477C15.1383 3.53607 14.9866 3.50586 14.8334 3.50586C14.6802 3.50586 14.5284 3.53607 14.3869 3.59477C14.2454 3.65346 14.1168 3.73949 14.0085 3.84793L9.34187 8.51459L10.9915 10.1643L14.8334 6.32243Z" fill="#0FA958"/>
</g>
<defs>
<filter id="filter0_d_2_921" x="-2" y="0" width="36" height="36" filterUnits="userSpaceOnUse" color-interpolation-filters="sRGB">
<feFlood flood-opacity="0" result="BackgroundImageFix"/>
<feColorMatrix in="SourceAlpha" type="matrix" values="0 0 0 0 0 0 0 0 0 0 0 0 0 0 0 0 0 0 127 0" result="hardAlpha"/>
<feOffset dy="4"/>
<feGaussianBlur stdDeviation="2"/>
<feComposite in2="hardAlpha" operator="out"/>
<feColorMatrix type="matrix" values="0 0 0 0 0 0 0 0 0 0 0 0 0 0 0 0 0 0 0.25 0"/>
<feBlend mode="normal" in2="BackgroundImageFix" result="effect1_dropShadow_2_921"/>
<feBlend mode="normal" in="SourceGraphic" in2="effect1_dropShadow_2_921" result="shape"/>
</filter>
</defs>
</svg>
