<svg width="22" height="24" viewBox="0 0 22 24" fill="none" xmlns="http://www.w3.org/2000/svg">
<path d="M9.79775 1.20833C10.1227 0.901141 10.5529 0.72998 11 0.72998C11.4471 0.72998 11.8773 0.901141 12.2023 1.20833L20.6793 9.22158C21.2043 9.71683 21.5 10.4081 21.5 11.1291V20.8766C21.5 21.5728 21.2234 22.2405 20.7312 22.7327C20.2389 23.225 19.5712 23.5016 18.875 23.5016H15.375C15.0301 23.5016 14.6886 23.4336 14.3701 23.3016C14.0515 23.1696 13.762 22.9761 13.5182 22.7321C13.2744 22.4882 13.0811 22.1986 12.9493 21.8799C12.8175 21.5612 12.7498 21.2197 12.75 20.8748V16.4998C12.75 16.2678 12.6578 16.0452 12.4937 15.8811C12.3296 15.717 12.1071 15.6248 11.875 15.6248H10.125C9.89294 15.6248 9.67038 15.717 9.50628 15.8811C9.34219 16.0452 9.25 16.2678 9.25 16.4998V20.8748C9.25 21.571 8.97344 22.2387 8.48116 22.731C7.98887 23.2233 7.32119 23.4998 6.625 23.4998H3.125C2.42881 23.4998 1.76113 23.2233 1.26884 22.731C0.776562 22.2387 0.5 21.571 0.5 20.8748V11.1273C0.5 10.4063 0.7975 9.71508 1.3225 9.21983L9.79775 1.20483V1.20833ZM11 2.47883L2.523 10.4938C2.43694 10.5754 2.36837 10.6736 2.32144 10.7825C2.27451 10.8914 2.2502 11.0087 2.25 11.1273V20.8748C2.25 21.1069 2.34219 21.3295 2.50628 21.4936C2.67038 21.6576 2.89294 21.7498 3.125 21.7498H6.625C6.85706 21.7498 7.07962 21.6576 7.24372 21.4936C7.40781 21.3295 7.5 21.1069 7.5 20.8748V16.4998C7.5 15.8036 7.77656 15.136 8.26884 14.6437C8.76113 14.1514 9.42881 13.8748 10.125 13.8748H11.875C12.5712 13.8748 13.2389 14.1514 13.7312 14.6437C14.2234 15.136 14.5 15.8036 14.5 16.4998V20.8748C14.5 21.1069 14.5922 21.3295 14.7563 21.4936C14.9204 21.6576 15.1429 21.7498 15.375 21.7498H18.875C19.1071 21.7498 19.3296 21.6576 19.4937 21.4936C19.6578 21.3295 19.75 21.1069 19.75 20.8748V11.1273C19.75 11.0085 19.7258 10.8908 19.6789 10.7816C19.632 10.6724 19.5633 10.5739 19.477 10.4921L11 2.47883Z" fill="#1AB65C"/>
</svg>
